<mxfile host="app.diagrams.net" modified="2023-06-08T02:11:42.778Z" agent="Mozilla/5.0 (Windows NT 10.0; Win64; x64) AppleWebKit/537.36 (KHTML, like Gecko) Chrome/114.0.0.0 Safari/537.36" etag="tCt4MfIE8NO2IsCYBYma" version="21.3.7" type="github">
  <diagram name="Page-1" id="TXENT2qwDDpO7z4WNbog">
    <mxGraphModel dx="2074" dy="1156" grid="1" gridSize="10" guides="1" tooltips="1" connect="1" arrows="1" fold="1" page="1" pageScale="1" pageWidth="850" pageHeight="1100" math="0" shadow="0">
      <root>
        <mxCell id="0" />
        <mxCell id="1" parent="0" />
        <mxCell id="C2ofrioWJH9qEL8GQ5yr-42" style="edgeStyle=orthogonalEdgeStyle;rounded=0;orthogonalLoop=1;jettySize=auto;html=1;exitX=1;exitY=0.5;exitDx=0;exitDy=0;strokeWidth=2;entryX=0;entryY=1;entryDx=0;entryDy=0;fillColor=#B2C9AB;strokeColor=#788AA3;labelBackgroundColor=none;fontColor=default;" parent="1" source="C2ofrioWJH9qEL8GQ5yr-20" target="4rHWwF1OL5Ue9DLAmv2L-2" edge="1">
          <mxGeometry relative="1" as="geometry">
            <mxPoint x="1000" y="430" as="targetPoint" />
          </mxGeometry>
        </mxCell>
        <mxCell id="C2ofrioWJH9qEL8GQ5yr-29" value="AIS" style="swimlane;whiteSpace=wrap;html=1;labelBackgroundColor=none;fillColor=#ffe6cc;strokeColor=#d79b00;" parent="1" vertex="1">
          <mxGeometry x="1040" y="200" width="350" height="530" as="geometry" />
        </mxCell>
        <mxCell id="C2ofrioWJH9qEL8GQ5yr-41" value="Vector&lt;br&gt;Database" style="shape=cylinder3;whiteSpace=wrap;html=1;boundedLbl=1;backgroundOutline=1;size=15;labelBackgroundColor=none;fillColor=#B2C9AB;strokeColor=#788AA3;fontColor=#46495D;" parent="C2ofrioWJH9qEL8GQ5yr-29" vertex="1">
          <mxGeometry x="460" y="215" width="60" height="80" as="geometry" />
        </mxCell>
        <mxCell id="C2ofrioWJH9qEL8GQ5yr-86" value="i7" style="ellipse;whiteSpace=wrap;html=1;aspect=fixed;fillColor=#fa6800;fontColor=#000000;strokeColor=#C73500;labelBackgroundColor=none;" parent="C2ofrioWJH9qEL8GQ5yr-29" vertex="1">
          <mxGeometry x="420" y="157.5" width="20" height="20" as="geometry" />
        </mxCell>
        <mxCell id="C2ofrioWJH9qEL8GQ5yr-85" value="C10" style="ellipse;whiteSpace=wrap;html=1;aspect=fixed;fillColor=#76608a;fontColor=#ffffff;strokeColor=#432D57;labelBackgroundColor=none;" parent="C2ofrioWJH9qEL8GQ5yr-29" vertex="1">
          <mxGeometry x="390" y="235" width="20" height="20" as="geometry" />
        </mxCell>
        <mxCell id="C2ofrioWJH9qEL8GQ5yr-84" value="i11" style="ellipse;whiteSpace=wrap;html=1;aspect=fixed;fillColor=#fa6800;fontColor=#000000;strokeColor=#C73500;labelBackgroundColor=none;" parent="C2ofrioWJH9qEL8GQ5yr-29" vertex="1">
          <mxGeometry x="420" y="340" width="20" height="20" as="geometry" />
        </mxCell>
        <mxCell id="C2ofrioWJH9qEL8GQ5yr-197" value="F10" style="ellipse;whiteSpace=wrap;html=1;aspect=fixed;labelBackgroundColor=none;fillColor=#0050ef;strokeColor=#001DBC;fontColor=#ffffff;" parent="C2ofrioWJH9qEL8GQ5yr-29" vertex="1">
          <mxGeometry x="370" y="235" width="20" height="20" as="geometry" />
        </mxCell>
        <mxCell id="C2ofrioWJH9qEL8GQ5yr-156" value="T6" style="ellipse;whiteSpace=wrap;html=1;aspect=fixed;labelBackgroundColor=none;fillColor=#ffcc99;strokeColor=#36393d;" parent="C2ofrioWJH9qEL8GQ5yr-29" vertex="1">
          <mxGeometry x="440" y="165" width="20" height="20" as="geometry" />
        </mxCell>
        <mxCell id="C2ofrioWJH9qEL8GQ5yr-202" value="T10" style="ellipse;whiteSpace=wrap;html=1;aspect=fixed;labelBackgroundColor=none;fillColor=#ffcc99;strokeColor=#36393d;" parent="C2ofrioWJH9qEL8GQ5yr-29" vertex="1">
          <mxGeometry x="440" y="335" width="20" height="20" as="geometry" />
        </mxCell>
        <mxCell id="C2ofrioWJH9qEL8GQ5yr-246" value="L5" style="ellipse;whiteSpace=wrap;html=1;aspect=fixed;labelBackgroundColor=none;fillColor=#008a00;strokeColor=#005700;fontColor=#ffffff;" parent="C2ofrioWJH9qEL8GQ5yr-29" vertex="1">
          <mxGeometry x="460" y="177.5" width="20" height="20" as="geometry" />
        </mxCell>
        <mxCell id="C2ofrioWJH9qEL8GQ5yr-30" value="SMAX" style="swimlane;whiteSpace=wrap;html=1;labelBackgroundColor=none;fillColor=#B2C9AB;strokeColor=#788AA3;fontColor=#46495D;" parent="1" vertex="1">
          <mxGeometry x="60" y="145" width="720" height="685" as="geometry" />
        </mxCell>
        <mxCell id="C2ofrioWJH9qEL8GQ5yr-113" value="i1" style="ellipse;whiteSpace=wrap;html=1;aspect=fixed;fillColor=#fa6800;fontColor=#000000;strokeColor=#C73500;labelBackgroundColor=none;" parent="C2ofrioWJH9qEL8GQ5yr-30" vertex="1">
          <mxGeometry x="235" y="515" width="20" height="20" as="geometry" />
        </mxCell>
        <mxCell id="C2ofrioWJH9qEL8GQ5yr-108" value="C1" style="ellipse;whiteSpace=wrap;html=1;aspect=fixed;fillColor=#76608a;fontColor=#ffffff;strokeColor=#432D57;labelBackgroundColor=none;" parent="C2ofrioWJH9qEL8GQ5yr-30" vertex="1">
          <mxGeometry x="220" y="385" width="15" height="15" as="geometry" />
        </mxCell>
        <mxCell id="C2ofrioWJH9qEL8GQ5yr-104" value="C4" style="ellipse;whiteSpace=wrap;html=1;aspect=fixed;labelBackgroundColor=none;fillColor=#76608a;strokeColor=#432D57;fontColor=#ffffff;" parent="C2ofrioWJH9qEL8GQ5yr-30" vertex="1">
          <mxGeometry x="510" y="135" width="20" height="20" as="geometry" />
        </mxCell>
        <mxCell id="C2ofrioWJH9qEL8GQ5yr-136" value="C2" style="ellipse;whiteSpace=wrap;html=1;aspect=fixed;labelBackgroundColor=none;fillColor=#76608a;strokeColor=#432D57;fontColor=#ffffff;" parent="C2ofrioWJH9qEL8GQ5yr-30" vertex="1">
          <mxGeometry x="428" y="325" width="20" height="20" as="geometry" />
        </mxCell>
        <mxCell id="C2ofrioWJH9qEL8GQ5yr-160" style="edgeStyle=orthogonalEdgeStyle;rounded=0;orthogonalLoop=1;jettySize=auto;html=1;exitX=1;exitY=0.5;exitDx=0;exitDy=0;entryX=0;entryY=0.5;entryDx=0;entryDy=0;strokeColor=#788AA3;fontColor=#46495D;fillColor=#B2C9AB;" parent="C2ofrioWJH9qEL8GQ5yr-30" source="C2ofrioWJH9qEL8GQ5yr-9" target="C2ofrioWJH9qEL8GQ5yr-146" edge="1">
          <mxGeometry relative="1" as="geometry" />
        </mxCell>
        <mxCell id="C2ofrioWJH9qEL8GQ5yr-159" value="T1" style="ellipse;whiteSpace=wrap;html=1;aspect=fixed;labelBackgroundColor=none;fillColor=#ffcc99;strokeColor=#36393d;" parent="C2ofrioWJH9qEL8GQ5yr-30" vertex="1">
          <mxGeometry x="255" y="95" width="20" height="20" as="geometry" />
        </mxCell>
        <mxCell id="C2ofrioWJH9qEL8GQ5yr-158" value="T2" style="ellipse;whiteSpace=wrap;html=1;aspect=fixed;labelBackgroundColor=none;fillColor=#ffcc99;strokeColor=#36393d;" parent="C2ofrioWJH9qEL8GQ5yr-30" vertex="1">
          <mxGeometry x="530" y="135" width="20" height="20" as="geometry" />
        </mxCell>
        <mxCell id="C2ofrioWJH9qEL8GQ5yr-131" value="" style="curved=1;endArrow=classic;html=1;rounded=0;strokeColor=#788AA3;fontColor=#46495D;fillColor=#B2C9AB;exitX=1.042;exitY=0.642;exitDx=0;exitDy=0;exitPerimeter=0;entryX=0;entryY=0.5;entryDx=0;entryDy=0;strokeWidth=2;" parent="C2ofrioWJH9qEL8GQ5yr-30" source="C2ofrioWJH9qEL8GQ5yr-129" target="C2ofrioWJH9qEL8GQ5yr-8" edge="1">
          <mxGeometry width="50" height="50" relative="1" as="geometry">
            <mxPoint x="30" y="445" as="sourcePoint" />
            <mxPoint x="80" y="395" as="targetPoint" />
            <Array as="points" />
          </mxGeometry>
        </mxCell>
        <mxCell id="C2ofrioWJH9qEL8GQ5yr-182" value="F1" style="ellipse;whiteSpace=wrap;html=1;aspect=fixed;labelBackgroundColor=none;fillColor=#0050ef;strokeColor=#001DBC;fontColor=#ffffff;" parent="C2ofrioWJH9qEL8GQ5yr-30" vertex="1">
          <mxGeometry x="235" y="385" width="20" height="20" as="geometry" />
        </mxCell>
        <mxCell id="C2ofrioWJH9qEL8GQ5yr-183" value="F2" style="ellipse;whiteSpace=wrap;html=1;aspect=fixed;labelBackgroundColor=none;fillColor=#0050ef;strokeColor=#001DBC;fontColor=#ffffff;" parent="C2ofrioWJH9qEL8GQ5yr-30" vertex="1">
          <mxGeometry x="398" y="325" width="20" height="20" as="geometry" />
        </mxCell>
        <mxCell id="C2ofrioWJH9qEL8GQ5yr-190" value="F4" style="ellipse;whiteSpace=wrap;html=1;aspect=fixed;labelBackgroundColor=none;fillColor=#0050ef;strokeColor=#001DBC;fontColor=#ffffff;" parent="C2ofrioWJH9qEL8GQ5yr-30" vertex="1">
          <mxGeometry x="550" y="135" width="20" height="20" as="geometry" />
        </mxCell>
        <mxCell id="C2ofrioWJH9qEL8GQ5yr-21" value="Transaction&lt;br&gt;Context" style="ellipse;whiteSpace=wrap;html=1;aspect=fixed;labelBackgroundColor=none;fillColor=#B2C9AB;strokeColor=#788AA3;fontColor=#46495D;" parent="C2ofrioWJH9qEL8GQ5yr-30" vertex="1">
          <mxGeometry x="440" y="495" width="80" height="80" as="geometry" />
        </mxCell>
        <mxCell id="C2ofrioWJH9qEL8GQ5yr-23" value="" style="curved=1;endArrow=classic;html=1;rounded=0;exitX=1;exitY=0.5;exitDx=0;exitDy=0;entryX=0;entryY=0.5;entryDx=0;entryDy=0;strokeWidth=2;fillColor=#B2C9AB;strokeColor=#788AA3;labelBackgroundColor=none;fontColor=default;" parent="C2ofrioWJH9qEL8GQ5yr-30" source="C2ofrioWJH9qEL8GQ5yr-6" target="C2ofrioWJH9qEL8GQ5yr-21" edge="1">
          <mxGeometry width="50" height="50" relative="1" as="geometry">
            <mxPoint x="140" y="260" as="sourcePoint" />
            <mxPoint x="190" y="210" as="targetPoint" />
            <Array as="points">
              <mxPoint x="200" y="505" />
              <mxPoint x="310" y="525" />
            </Array>
          </mxGeometry>
        </mxCell>
        <mxCell id="C2ofrioWJH9qEL8GQ5yr-27" value="SMAX Backend" style="swimlane;whiteSpace=wrap;html=1;labelBackgroundColor=none;fillColor=#ffe6cc;strokeColor=#d79b00;" parent="C2ofrioWJH9qEL8GQ5yr-30" vertex="1">
          <mxGeometry x="340" y="35" width="350" height="630" as="geometry" />
        </mxCell>
        <mxCell id="C2ofrioWJH9qEL8GQ5yr-106" value="i2" style="ellipse;whiteSpace=wrap;html=1;aspect=fixed;fillColor=#fa6800;fontColor=#000000;strokeColor=#C73500;labelBackgroundColor=none;" parent="C2ofrioWJH9qEL8GQ5yr-27" vertex="1">
          <mxGeometry x="220" y="400" width="20" height="20" as="geometry" />
        </mxCell>
        <mxCell id="C2ofrioWJH9qEL8GQ5yr-189" value="F3" style="ellipse;whiteSpace=wrap;html=1;aspect=fixed;labelBackgroundColor=none;fillColor=#0050ef;strokeColor=#001DBC;fontColor=#ffffff;" parent="C2ofrioWJH9qEL8GQ5yr-27" vertex="1">
          <mxGeometry x="65" y="150" width="20" height="20" as="geometry" />
        </mxCell>
        <mxCell id="C2ofrioWJH9qEL8GQ5yr-141" value="C3" style="ellipse;whiteSpace=wrap;html=1;aspect=fixed;labelBackgroundColor=none;fillColor=#76608a;strokeColor=#432D57;fontColor=#ffffff;" parent="C2ofrioWJH9qEL8GQ5yr-27" vertex="1">
          <mxGeometry x="85" y="150" width="20" height="20" as="geometry" />
        </mxCell>
        <mxCell id="C2ofrioWJH9qEL8GQ5yr-17" value="VA&lt;br&gt;Bot engine" style="ellipse;whiteSpace=wrap;html=1;aspect=fixed;labelBackgroundColor=none;fillColor=#B2C9AB;strokeColor=#788AA3;fontColor=#46495D;" parent="C2ofrioWJH9qEL8GQ5yr-27" vertex="1">
          <mxGeometry x="40" y="190" width="80" height="80" as="geometry" />
        </mxCell>
        <mxCell id="C2ofrioWJH9qEL8GQ5yr-8" value="Virtual agent" style="ellipse;whiteSpace=wrap;html=1;aspect=fixed;labelBackgroundColor=none;fillColor=#B2C9AB;strokeColor=#788AA3;fontColor=#46495D;" parent="C2ofrioWJH9qEL8GQ5yr-27" vertex="1">
          <mxGeometry x="40" y="320" width="80" height="80" as="geometry" />
        </mxCell>
        <mxCell id="C2ofrioWJH9qEL8GQ5yr-166" value="" style="curved=1;endArrow=classic;html=1;rounded=0;strokeColor=#788AA3;fontColor=#46495D;fillColor=#B2C9AB;exitX=0.5;exitY=0;exitDx=0;exitDy=0;entryX=0.5;entryY=1;entryDx=0;entryDy=0;strokeWidth=2;" parent="C2ofrioWJH9qEL8GQ5yr-27" source="C2ofrioWJH9qEL8GQ5yr-8" target="C2ofrioWJH9qEL8GQ5yr-17" edge="1">
          <mxGeometry width="50" height="50" relative="1" as="geometry">
            <mxPoint x="150" y="510" as="sourcePoint" />
            <mxPoint x="200" y="460" as="targetPoint" />
            <Array as="points" />
          </mxGeometry>
        </mxCell>
        <mxCell id="C2ofrioWJH9qEL8GQ5yr-146" value="VA&lt;br&gt;Server" style="ellipse;whiteSpace=wrap;html=1;aspect=fixed;labelBackgroundColor=none;fillColor=#B2C9AB;strokeColor=#788AA3;fontColor=#46495D;" parent="C2ofrioWJH9qEL8GQ5yr-27" vertex="1">
          <mxGeometry x="40" y="40" width="80" height="80" as="geometry" />
        </mxCell>
        <mxCell id="C2ofrioWJH9qEL8GQ5yr-149" value="" style="curved=1;endArrow=classic;html=1;rounded=0;strokeColor=#788AA3;fontColor=#46495D;fillColor=#B2C9AB;exitX=0;exitY=0;exitDx=0;exitDy=0;entryX=0.5;entryY=1;entryDx=0;entryDy=0;strokeWidth=2;" parent="C2ofrioWJH9qEL8GQ5yr-27" source="C2ofrioWJH9qEL8GQ5yr-17" target="C2ofrioWJH9qEL8GQ5yr-146" edge="1">
          <mxGeometry width="50" height="50" relative="1" as="geometry">
            <mxPoint x="-140" y="310" as="sourcePoint" />
            <mxPoint x="-90" y="260" as="targetPoint" />
            <Array as="points">
              <mxPoint x="60" y="180" />
            </Array>
          </mxGeometry>
        </mxCell>
        <mxCell id="C2ofrioWJH9qEL8GQ5yr-132" value="" style="curved=1;endArrow=classic;html=1;rounded=0;strokeColor=#788AA3;fontColor=#46495D;fillColor=#B2C9AB;entryX=0;entryY=0;entryDx=0;entryDy=0;strokeWidth=2;" parent="C2ofrioWJH9qEL8GQ5yr-27" source="C2ofrioWJH9qEL8GQ5yr-146" target="C2ofrioWJH9qEL8GQ5yr-20" edge="1">
          <mxGeometry width="50" height="50" relative="1" as="geometry">
            <mxPoint x="60" y="360" as="sourcePoint" />
            <mxPoint x="110" y="310" as="targetPoint" />
            <Array as="points">
              <mxPoint x="100" y="130" />
              <mxPoint x="200" y="150" />
            </Array>
          </mxGeometry>
        </mxCell>
        <mxCell id="C2ofrioWJH9qEL8GQ5yr-137" value="C5" style="ellipse;whiteSpace=wrap;html=1;aspect=fixed;labelBackgroundColor=none;fillColor=#76608a;strokeColor=#432D57;fontColor=#ffffff;" parent="C2ofrioWJH9qEL8GQ5yr-27" vertex="1">
          <mxGeometry x="300" y="120" width="20" height="20" as="geometry" />
        </mxCell>
        <mxCell id="C2ofrioWJH9qEL8GQ5yr-150" value="BO&amp;nbsp;&lt;br&gt;vault" style="ellipse;whiteSpace=wrap;html=1;aspect=fixed;labelBackgroundColor=none;fillColor=#B2C9AB;strokeColor=#788AA3;fontColor=#46495D;" parent="C2ofrioWJH9qEL8GQ5yr-27" vertex="1">
          <mxGeometry x="240" y="30" width="80" height="80" as="geometry" />
        </mxCell>
        <mxCell id="C2ofrioWJH9qEL8GQ5yr-152" value="i4" style="ellipse;whiteSpace=wrap;html=1;aspect=fixed;fillColor=#fa6800;fontColor=#000000;strokeColor=#C73500;labelBackgroundColor=none;" parent="C2ofrioWJH9qEL8GQ5yr-27" vertex="1">
          <mxGeometry x="280" y="120" width="20" height="20" as="geometry" />
        </mxCell>
        <mxCell id="C2ofrioWJH9qEL8GQ5yr-139" value="T3" style="ellipse;whiteSpace=wrap;html=1;aspect=fixed;labelBackgroundColor=none;fillColor=#ffcc99;strokeColor=#36393d;" parent="C2ofrioWJH9qEL8GQ5yr-27" vertex="1">
          <mxGeometry x="260" y="120" width="20" height="20" as="geometry" />
        </mxCell>
        <mxCell id="C2ofrioWJH9qEL8GQ5yr-191" value="F5" style="ellipse;whiteSpace=wrap;html=1;aspect=fixed;labelBackgroundColor=none;fillColor=#0050ef;strokeColor=#001DBC;fontColor=#ffffff;" parent="C2ofrioWJH9qEL8GQ5yr-27" vertex="1">
          <mxGeometry x="320" y="120" width="20" height="20" as="geometry" />
        </mxCell>
        <mxCell id="C2ofrioWJH9qEL8GQ5yr-109" value="i3" style="ellipse;whiteSpace=wrap;html=1;aspect=fixed;fillColor=#fa6800;fontColor=#000000;strokeColor=#C73500;labelBackgroundColor=none;" parent="C2ofrioWJH9qEL8GQ5yr-27" vertex="1">
          <mxGeometry x="255" y="265" width="20" height="20" as="geometry" />
        </mxCell>
        <mxCell id="C2ofrioWJH9qEL8GQ5yr-248" value="L1" style="ellipse;whiteSpace=wrap;html=1;aspect=fixed;labelBackgroundColor=none;fillColor=#008a00;strokeColor=#005700;fontColor=#ffffff;" parent="C2ofrioWJH9qEL8GQ5yr-27" vertex="1">
          <mxGeometry x="275" y="500" width="20" height="20" as="geometry" />
        </mxCell>
        <mxCell id="C2ofrioWJH9qEL8GQ5yr-247" value="L2" style="ellipse;whiteSpace=wrap;html=1;aspect=fixed;labelBackgroundColor=none;fillColor=#008a00;strokeColor=#005700;fontColor=#ffffff;" parent="C2ofrioWJH9qEL8GQ5yr-27" vertex="1">
          <mxGeometry x="340" y="120" width="20" height="20" as="geometry" />
        </mxCell>
        <mxCell id="C2ofrioWJH9qEL8GQ5yr-20" value="AIS Client" style="ellipse;whiteSpace=wrap;html=1;aspect=fixed;labelBackgroundColor=none;fillColor=#B2C9AB;strokeColor=#788AA3;fontColor=#46495D;" parent="C2ofrioWJH9qEL8GQ5yr-27" vertex="1">
          <mxGeometry x="240" y="180" width="80" height="80" as="geometry" />
        </mxCell>
        <mxCell id="C2ofrioWJH9qEL8GQ5yr-24" value="Vector&lt;br&gt;Indexworker" style="ellipse;whiteSpace=wrap;html=1;aspect=fixed;labelBackgroundColor=none;fillColor=#B2C9AB;strokeColor=#788AA3;fontColor=#46495D;" parent="C2ofrioWJH9qEL8GQ5yr-27" vertex="1">
          <mxGeometry x="240" y="292.5" width="80" height="80" as="geometry" />
        </mxCell>
        <mxCell id="C2ofrioWJH9qEL8GQ5yr-26" style="edgeStyle=orthogonalEdgeStyle;rounded=0;orthogonalLoop=1;jettySize=auto;html=1;exitX=0.5;exitY=0;exitDx=0;exitDy=0;entryX=0.5;entryY=1;entryDx=0;entryDy=0;fillColor=#B2C9AB;strokeColor=#788AA3;strokeWidth=2;labelBackgroundColor=none;fontColor=default;" parent="C2ofrioWJH9qEL8GQ5yr-27" source="C2ofrioWJH9qEL8GQ5yr-24" target="C2ofrioWJH9qEL8GQ5yr-20" edge="1">
          <mxGeometry relative="1" as="geometry" />
        </mxCell>
        <mxCell id="C2ofrioWJH9qEL8GQ5yr-151" style="edgeStyle=orthogonalEdgeStyle;rounded=0;orthogonalLoop=1;jettySize=auto;html=1;exitX=0.5;exitY=0;exitDx=0;exitDy=0;entryX=0.5;entryY=1;entryDx=0;entryDy=0;strokeColor=#788AA3;fontColor=#46495D;fillColor=#B2C9AB;strokeWidth=2;" parent="C2ofrioWJH9qEL8GQ5yr-27" source="C2ofrioWJH9qEL8GQ5yr-20" target="C2ofrioWJH9qEL8GQ5yr-150" edge="1">
          <mxGeometry relative="1" as="geometry" />
        </mxCell>
        <mxCell id="C2ofrioWJH9qEL8GQ5yr-28" value="SMAX Front" style="swimlane;whiteSpace=wrap;html=1;labelBackgroundColor=none;fillColor=#ffe6cc;strokeColor=#d79b00;" parent="C2ofrioWJH9qEL8GQ5yr-30" vertex="1">
          <mxGeometry x="20" y="35" width="280" height="630" as="geometry" />
        </mxCell>
        <mxCell id="C2ofrioWJH9qEL8GQ5yr-9" value="VA&lt;br&gt;UI" style="ellipse;whiteSpace=wrap;html=1;aspect=fixed;labelBackgroundColor=none;fillColor=#B2C9AB;strokeColor=#788AA3;fontColor=#46495D;" parent="C2ofrioWJH9qEL8GQ5yr-28" vertex="1">
          <mxGeometry x="50" y="40" width="80" height="80" as="geometry" />
        </mxCell>
        <mxCell id="C2ofrioWJH9qEL8GQ5yr-129" value="Portal" style="ellipse;whiteSpace=wrap;html=1;aspect=fixed;labelBackgroundColor=none;fillColor=#B2C9AB;strokeColor=#788AA3;fontColor=#46495D;" parent="C2ofrioWJH9qEL8GQ5yr-28" vertex="1">
          <mxGeometry x="50" y="307.5" width="80" height="80" as="geometry" />
        </mxCell>
        <mxCell id="C2ofrioWJH9qEL8GQ5yr-6" value="Agent" style="ellipse;whiteSpace=wrap;html=1;aspect=fixed;labelBackgroundColor=none;fillColor=#B2C9AB;strokeColor=#788AA3;fontColor=#46495D;" parent="C2ofrioWJH9qEL8GQ5yr-28" vertex="1">
          <mxGeometry x="40" y="430" width="80" height="80" as="geometry" />
        </mxCell>
        <mxCell id="C2ofrioWJH9qEL8GQ5yr-240" value="BO&lt;br&gt;UI" style="ellipse;whiteSpace=wrap;html=1;aspect=fixed;labelBackgroundColor=none;fillColor=#B2C9AB;strokeColor=#788AA3;fontColor=#46495D;" parent="C2ofrioWJH9qEL8GQ5yr-28" vertex="1">
          <mxGeometry x="40" y="530" width="80" height="80" as="geometry" />
        </mxCell>
        <mxCell id="C2ofrioWJH9qEL8GQ5yr-241" value="" style="curved=1;endArrow=classic;html=1;rounded=0;strokeColor=#788AA3;fontColor=#46495D;fillColor=#B2C9AB;exitX=1;exitY=0.5;exitDx=0;exitDy=0;entryX=1;entryY=1;entryDx=0;entryDy=0;strokeWidth=2;" parent="C2ofrioWJH9qEL8GQ5yr-30" source="C2ofrioWJH9qEL8GQ5yr-240" target="C2ofrioWJH9qEL8GQ5yr-20" edge="1">
          <mxGeometry width="50" height="50" relative="1" as="geometry">
            <mxPoint x="580" y="605" as="sourcePoint" />
            <mxPoint x="630" y="555" as="targetPoint" />
            <Array as="points">
              <mxPoint x="590" y="575" />
              <mxPoint x="630" y="525" />
              <mxPoint x="660" y="455" />
              <mxPoint x="670" y="375" />
            </Array>
          </mxGeometry>
        </mxCell>
        <mxCell id="C2ofrioWJH9qEL8GQ5yr-22" value="" style="curved=1;endArrow=classic;html=1;rounded=0;exitX=0.175;exitY=0.944;exitDx=0;exitDy=0;fillColor=#B2C9AB;strokeColor=#788AA3;strokeWidth=2;labelBackgroundColor=none;fontColor=default;exitPerimeter=0;entryX=1;entryY=0;entryDx=0;entryDy=0;" parent="C2ofrioWJH9qEL8GQ5yr-30" source="C2ofrioWJH9qEL8GQ5yr-24" target="C2ofrioWJH9qEL8GQ5yr-21" edge="1">
          <mxGeometry width="50" height="50" relative="1" as="geometry">
            <mxPoint x="420" y="400" as="sourcePoint" />
            <mxPoint x="460" y="525" as="targetPoint" />
            <Array as="points">
              <mxPoint x="580" y="415" />
              <mxPoint x="560" y="445" />
              <mxPoint x="520" y="475" />
            </Array>
          </mxGeometry>
        </mxCell>
        <mxCell id="C2ofrioWJH9qEL8GQ5yr-55" value="Sagemaker" style="swimlane;whiteSpace=wrap;html=1;labelBackgroundColor=none;fillColor=#dae8fc;strokeColor=#6c8ebf;" parent="1" vertex="1">
          <mxGeometry x="1640" y="145" width="300" height="650" as="geometry" />
        </mxCell>
        <mxCell id="C2ofrioWJH9qEL8GQ5yr-56" value="Embedding&lt;br&gt;Endpoint" style="ellipse;whiteSpace=wrap;html=1;labelBackgroundColor=none;fillColor=#B2C9AB;strokeColor=#788AA3;fontColor=#46495D;" parent="C2ofrioWJH9qEL8GQ5yr-55" vertex="1">
          <mxGeometry x="80" y="40" width="140" height="79" as="geometry" />
        </mxCell>
        <mxCell id="C2ofrioWJH9qEL8GQ5yr-58" value="Completion&lt;br&gt;Endpoint" style="ellipse;whiteSpace=wrap;html=1;labelBackgroundColor=none;fillColor=#B2C9AB;strokeColor=#788AA3;fontColor=#46495D;" parent="C2ofrioWJH9qEL8GQ5yr-55" vertex="1">
          <mxGeometry x="80" y="230" width="140" height="75" as="geometry" />
        </mxCell>
        <mxCell id="C2ofrioWJH9qEL8GQ5yr-72" style="edgeStyle=orthogonalEdgeStyle;rounded=0;orthogonalLoop=1;jettySize=auto;html=1;exitX=1;exitY=0.5;exitDx=0;exitDy=0;entryX=0;entryY=0.5;entryDx=0;entryDy=0;fillColor=#B2C9AB;strokeColor=#788AA3;strokeWidth=2;labelBackgroundColor=none;fontColor=default;" parent="1" source="C2ofrioWJH9qEL8GQ5yr-32" target="C2ofrioWJH9qEL8GQ5yr-56" edge="1">
          <mxGeometry relative="1" as="geometry">
            <Array as="points">
              <mxPoint x="1535" y="278" />
              <mxPoint x="1535" y="280" />
              <mxPoint x="1720" y="280" />
            </Array>
          </mxGeometry>
        </mxCell>
        <mxCell id="C2ofrioWJH9qEL8GQ5yr-74" value="" style="curved=1;endArrow=classic;html=1;rounded=0;exitX=1;exitY=0.5;exitDx=0;exitDy=0;entryX=0;entryY=1;entryDx=0;entryDy=0;strokeWidth=2;fillColor=#B2C9AB;strokeColor=#788AA3;labelBackgroundColor=none;fontColor=default;" parent="1" source="C2ofrioWJH9qEL8GQ5yr-40" target="C2ofrioWJH9qEL8GQ5yr-58" edge="1">
          <mxGeometry width="50" height="50" relative="1" as="geometry">
            <mxPoint x="1570" y="640" as="sourcePoint" />
            <mxPoint x="1620" y="590" as="targetPoint" />
            <Array as="points">
              <mxPoint x="1620" y="610" />
            </Array>
          </mxGeometry>
        </mxCell>
        <mxCell id="C2ofrioWJH9qEL8GQ5yr-83" value="C12" style="ellipse;whiteSpace=wrap;html=1;aspect=fixed;fillColor=#76608a;fontColor=#ffffff;strokeColor=#432D57;labelBackgroundColor=none;" parent="1" vertex="1">
          <mxGeometry x="1600" y="590" width="20" height="20" as="geometry" />
        </mxCell>
        <mxCell id="C2ofrioWJH9qEL8GQ5yr-105" value="i9" style="ellipse;whiteSpace=wrap;html=1;aspect=fixed;fillColor=#fa6800;fontColor=#000000;strokeColor=#C73500;labelBackgroundColor=none;" parent="1" vertex="1">
          <mxGeometry x="1580" y="270" width="20" height="20" as="geometry" />
        </mxCell>
        <mxCell id="C2ofrioWJH9qEL8GQ5yr-110" value="" style="ellipse;whiteSpace=wrap;html=1;aspect=fixed;fillColor=#76608a;fontColor=#ffffff;strokeColor=#432D57;labelBackgroundColor=none;" parent="1" vertex="1">
          <mxGeometry x="90" y="75" width="20" height="20" as="geometry" />
        </mxCell>
        <mxCell id="C2ofrioWJH9qEL8GQ5yr-125" value="" style="ellipse;whiteSpace=wrap;html=1;aspect=fixed;fillColor=#fa6800;fontColor=#000000;strokeColor=#C73500;labelBackgroundColor=none;" parent="1" vertex="1">
          <mxGeometry x="90" y="30" width="20" height="20" as="geometry" />
        </mxCell>
        <mxCell id="C2ofrioWJH9qEL8GQ5yr-126" value="&lt;font style=&quot;font-size: 22px;&quot;&gt;&amp;nbsp;Index&lt;/font&gt;" style="text;html=1;align=center;verticalAlign=middle;resizable=0;points=[];autosize=1;strokeColor=none;fillColor=none;fontColor=#46495D;strokeWidth=22;" parent="1" vertex="1">
          <mxGeometry x="115" y="20" width="80" height="40" as="geometry" />
        </mxCell>
        <mxCell id="C2ofrioWJH9qEL8GQ5yr-128" value="&lt;font style=&quot;font-size: 22px;&quot;&gt;Completion&lt;/font&gt;" style="text;html=1;align=center;verticalAlign=middle;resizable=0;points=[];autosize=1;strokeColor=none;fillColor=none;fontColor=#46495D;strokeWidth=22;" parent="1" vertex="1">
          <mxGeometry x="115" y="65" width="130" height="40" as="geometry" />
        </mxCell>
        <mxCell id="C2ofrioWJH9qEL8GQ5yr-142" value="" style="ellipse;whiteSpace=wrap;html=1;aspect=fixed;labelBackgroundColor=none;fillColor=#ffcc99;strokeColor=#36393d;" parent="1" vertex="1">
          <mxGeometry x="300" y="30" width="20" height="20" as="geometry" />
        </mxCell>
        <mxCell id="C2ofrioWJH9qEL8GQ5yr-143" value="C8" style="ellipse;whiteSpace=wrap;html=1;aspect=fixed;labelBackgroundColor=none;fillColor=#76608a;strokeColor=#432D57;fontColor=#ffffff;" parent="1" vertex="1">
          <mxGeometry x="1600" y="270" width="20" height="20" as="geometry" />
        </mxCell>
        <mxCell id="C2ofrioWJH9qEL8GQ5yr-145" value="&lt;font style=&quot;font-size: 22px;&quot;&gt;Train&lt;/font&gt;" style="text;html=1;align=center;verticalAlign=middle;resizable=0;points=[];autosize=1;strokeColor=none;fillColor=none;fontColor=#46495D;strokeWidth=22;" parent="1" vertex="1">
          <mxGeometry x="325" y="20" width="70" height="40" as="geometry" />
        </mxCell>
        <mxCell id="C2ofrioWJH9qEL8GQ5yr-180" value="" style="ellipse;whiteSpace=wrap;html=1;aspect=fixed;labelBackgroundColor=none;fillColor=#0050ef;strokeColor=#001DBC;fontColor=#ffffff;" parent="1" vertex="1">
          <mxGeometry x="300" y="75" width="20" height="20" as="geometry" />
        </mxCell>
        <mxCell id="C2ofrioWJH9qEL8GQ5yr-181" value="&lt;font style=&quot;font-size: 22px;&quot;&gt;Find intent&lt;/font&gt;" style="text;html=1;align=center;verticalAlign=middle;resizable=0;points=[];autosize=1;strokeColor=none;fillColor=none;fontColor=#46495D;strokeWidth=22;" parent="1" vertex="1">
          <mxGeometry x="325" y="65" width="130" height="40" as="geometry" />
        </mxCell>
        <mxCell id="C2ofrioWJH9qEL8GQ5yr-194" value="F8" style="ellipse;whiteSpace=wrap;html=1;aspect=fixed;labelBackgroundColor=none;fillColor=#0050ef;strokeColor=#001DBC;fontColor=#ffffff;" parent="1" vertex="1">
          <mxGeometry x="1580" y="290" width="20" height="20" as="geometry" />
        </mxCell>
        <mxCell id="C2ofrioWJH9qEL8GQ5yr-174" value="T8" style="ellipse;whiteSpace=wrap;html=1;aspect=fixed;labelBackgroundColor=none;fillColor=#ffcc99;strokeColor=#36393d;" parent="1" vertex="1">
          <mxGeometry x="1600" y="290" width="20" height="20" as="geometry" />
        </mxCell>
        <mxCell id="C2ofrioWJH9qEL8GQ5yr-242" value="" style="ellipse;whiteSpace=wrap;html=1;aspect=fixed;labelBackgroundColor=none;fillColor=#008a00;strokeColor=#005700;fontColor=#ffffff;" parent="1" vertex="1">
          <mxGeometry x="520" y="30" width="20" height="20" as="geometry" />
        </mxCell>
        <mxCell id="C2ofrioWJH9qEL8GQ5yr-244" value="&lt;font style=&quot;font-size: 22px;&quot;&gt;Tenant lifecycle&lt;/font&gt;" style="text;html=1;align=center;verticalAlign=middle;resizable=0;points=[];autosize=1;strokeColor=none;fillColor=none;fontColor=#46495D;strokeWidth=22;" parent="1" vertex="1">
          <mxGeometry x="550" y="20" width="170" height="40" as="geometry" />
        </mxCell>
        <mxCell id="4rHWwF1OL5Ue9DLAmv2L-1" value="API Gateway" style="swimlane;whiteSpace=wrap;html=1;fillColor=#dae8fc;strokeColor=#6c8ebf;" vertex="1" parent="1">
          <mxGeometry x="800" y="145" width="200" height="685" as="geometry" />
        </mxCell>
        <mxCell id="4rHWwF1OL5Ue9DLAmv2L-2" value="Lambda" style="ellipse;whiteSpace=wrap;html=1;labelBackgroundColor=none;fillColor=#B2C9AB;strokeColor=#788AA3;fontColor=#46495D;" vertex="1" parent="4rHWwF1OL5Ue9DLAmv2L-1">
          <mxGeometry x="30" y="70" width="140" height="75" as="geometry" />
        </mxCell>
        <mxCell id="4rHWwF1OL5Ue9DLAmv2L-8" value="SMAX" style="swimlane;whiteSpace=wrap;html=1;labelBackgroundColor=none;fillColor=#dae8fc;strokeColor=#6c8ebf;" vertex="1" parent="4rHWwF1OL5Ue9DLAmv2L-1">
          <mxGeometry x="-740" width="720" height="685" as="geometry" />
        </mxCell>
        <mxCell id="4rHWwF1OL5Ue9DLAmv2L-10" value="i1" style="ellipse;whiteSpace=wrap;html=1;aspect=fixed;fillColor=#fa6800;fontColor=#000000;strokeColor=#C73500;labelBackgroundColor=none;" vertex="1" parent="4rHWwF1OL5Ue9DLAmv2L-8">
          <mxGeometry x="235" y="515" width="20" height="20" as="geometry" />
        </mxCell>
        <mxCell id="4rHWwF1OL5Ue9DLAmv2L-11" value="C1" style="ellipse;whiteSpace=wrap;html=1;aspect=fixed;fillColor=#76608a;fontColor=#ffffff;strokeColor=#432D57;labelBackgroundColor=none;" vertex="1" parent="4rHWwF1OL5Ue9DLAmv2L-8">
          <mxGeometry x="220" y="385" width="15" height="15" as="geometry" />
        </mxCell>
        <mxCell id="4rHWwF1OL5Ue9DLAmv2L-12" value="C4" style="ellipse;whiteSpace=wrap;html=1;aspect=fixed;labelBackgroundColor=none;fillColor=#76608a;strokeColor=#432D57;fontColor=#ffffff;" vertex="1" parent="4rHWwF1OL5Ue9DLAmv2L-8">
          <mxGeometry x="510" y="135" width="20" height="20" as="geometry" />
        </mxCell>
        <mxCell id="4rHWwF1OL5Ue9DLAmv2L-13" value="C2" style="ellipse;whiteSpace=wrap;html=1;aspect=fixed;labelBackgroundColor=none;fillColor=#76608a;strokeColor=#432D57;fontColor=#ffffff;" vertex="1" parent="4rHWwF1OL5Ue9DLAmv2L-8">
          <mxGeometry x="428" y="325" width="20" height="20" as="geometry" />
        </mxCell>
        <mxCell id="4rHWwF1OL5Ue9DLAmv2L-14" style="edgeStyle=orthogonalEdgeStyle;rounded=0;orthogonalLoop=1;jettySize=auto;html=1;exitX=1;exitY=0.5;exitDx=0;exitDy=0;entryX=0;entryY=0.5;entryDx=0;entryDy=0;strokeColor=#788AA3;fontColor=#46495D;fillColor=#B2C9AB;" edge="1" parent="4rHWwF1OL5Ue9DLAmv2L-8" source="4rHWwF1OL5Ue9DLAmv2L-49" target="4rHWwF1OL5Ue9DLAmv2L-33">
          <mxGeometry relative="1" as="geometry" />
        </mxCell>
        <mxCell id="4rHWwF1OL5Ue9DLAmv2L-16" value="T1" style="ellipse;whiteSpace=wrap;html=1;aspect=fixed;labelBackgroundColor=none;fillColor=#ffcc99;strokeColor=#36393d;" vertex="1" parent="4rHWwF1OL5Ue9DLAmv2L-8">
          <mxGeometry x="255" y="95" width="20" height="20" as="geometry" />
        </mxCell>
        <mxCell id="4rHWwF1OL5Ue9DLAmv2L-17" value="T2" style="ellipse;whiteSpace=wrap;html=1;aspect=fixed;labelBackgroundColor=none;fillColor=#ffcc99;strokeColor=#36393d;" vertex="1" parent="4rHWwF1OL5Ue9DLAmv2L-8">
          <mxGeometry x="530" y="135" width="20" height="20" as="geometry" />
        </mxCell>
        <mxCell id="4rHWwF1OL5Ue9DLAmv2L-19" value="" style="curved=1;endArrow=classic;html=1;rounded=0;strokeColor=#788AA3;fontColor=#46495D;fillColor=#B2C9AB;exitX=1.042;exitY=0.642;exitDx=0;exitDy=0;exitPerimeter=0;entryX=0;entryY=0.5;entryDx=0;entryDy=0;strokeWidth=2;" edge="1" parent="4rHWwF1OL5Ue9DLAmv2L-8" source="4rHWwF1OL5Ue9DLAmv2L-50" target="4rHWwF1OL5Ue9DLAmv2L-31">
          <mxGeometry width="50" height="50" relative="1" as="geometry">
            <mxPoint x="30" y="445" as="sourcePoint" />
            <mxPoint x="80" y="395" as="targetPoint" />
            <Array as="points" />
          </mxGeometry>
        </mxCell>
        <mxCell id="4rHWwF1OL5Ue9DLAmv2L-20" value="F1" style="ellipse;whiteSpace=wrap;html=1;aspect=fixed;labelBackgroundColor=none;fillColor=#0050ef;strokeColor=#001DBC;fontColor=#ffffff;" vertex="1" parent="4rHWwF1OL5Ue9DLAmv2L-8">
          <mxGeometry x="235" y="385" width="20" height="20" as="geometry" />
        </mxCell>
        <mxCell id="4rHWwF1OL5Ue9DLAmv2L-21" value="F2" style="ellipse;whiteSpace=wrap;html=1;aspect=fixed;labelBackgroundColor=none;fillColor=#0050ef;strokeColor=#001DBC;fontColor=#ffffff;" vertex="1" parent="4rHWwF1OL5Ue9DLAmv2L-8">
          <mxGeometry x="398" y="325" width="20" height="20" as="geometry" />
        </mxCell>
        <mxCell id="4rHWwF1OL5Ue9DLAmv2L-22" value="F4" style="ellipse;whiteSpace=wrap;html=1;aspect=fixed;labelBackgroundColor=none;fillColor=#0050ef;strokeColor=#001DBC;fontColor=#ffffff;" vertex="1" parent="4rHWwF1OL5Ue9DLAmv2L-8">
          <mxGeometry x="550" y="135" width="20" height="20" as="geometry" />
        </mxCell>
        <mxCell id="4rHWwF1OL5Ue9DLAmv2L-24" value="Transaction&lt;br&gt;Context" style="ellipse;whiteSpace=wrap;html=1;aspect=fixed;labelBackgroundColor=none;fillColor=#B2C9AB;strokeColor=#788AA3;fontColor=#46495D;" vertex="1" parent="4rHWwF1OL5Ue9DLAmv2L-8">
          <mxGeometry x="440" y="495" width="80" height="80" as="geometry" />
        </mxCell>
        <mxCell id="4rHWwF1OL5Ue9DLAmv2L-25" value="" style="curved=1;endArrow=classic;html=1;rounded=0;exitX=1;exitY=0.5;exitDx=0;exitDy=0;entryX=0;entryY=0.5;entryDx=0;entryDy=0;strokeWidth=2;fillColor=#B2C9AB;strokeColor=#788AA3;labelBackgroundColor=none;fontColor=default;" edge="1" parent="4rHWwF1OL5Ue9DLAmv2L-8" source="4rHWwF1OL5Ue9DLAmv2L-51" target="4rHWwF1OL5Ue9DLAmv2L-24">
          <mxGeometry width="50" height="50" relative="1" as="geometry">
            <mxPoint x="140" y="260" as="sourcePoint" />
            <mxPoint x="190" y="210" as="targetPoint" />
            <Array as="points">
              <mxPoint x="200" y="505" />
              <mxPoint x="310" y="525" />
            </Array>
          </mxGeometry>
        </mxCell>
        <mxCell id="4rHWwF1OL5Ue9DLAmv2L-26" value="SMAX Backend" style="swimlane;whiteSpace=wrap;html=1;labelBackgroundColor=none;fillColor=#ffe6cc;strokeColor=#d79b00;" vertex="1" parent="4rHWwF1OL5Ue9DLAmv2L-8">
          <mxGeometry x="340" y="35" width="350" height="630" as="geometry" />
        </mxCell>
        <mxCell id="4rHWwF1OL5Ue9DLAmv2L-27" value="i2" style="ellipse;whiteSpace=wrap;html=1;aspect=fixed;fillColor=#fa6800;fontColor=#000000;strokeColor=#C73500;labelBackgroundColor=none;" vertex="1" parent="4rHWwF1OL5Ue9DLAmv2L-26">
          <mxGeometry x="220" y="400" width="20" height="20" as="geometry" />
        </mxCell>
        <mxCell id="4rHWwF1OL5Ue9DLAmv2L-28" value="F3" style="ellipse;whiteSpace=wrap;html=1;aspect=fixed;labelBackgroundColor=none;fillColor=#0050ef;strokeColor=#001DBC;fontColor=#ffffff;" vertex="1" parent="4rHWwF1OL5Ue9DLAmv2L-26">
          <mxGeometry x="65" y="150" width="20" height="20" as="geometry" />
        </mxCell>
        <mxCell id="4rHWwF1OL5Ue9DLAmv2L-29" value="C3" style="ellipse;whiteSpace=wrap;html=1;aspect=fixed;labelBackgroundColor=none;fillColor=#76608a;strokeColor=#432D57;fontColor=#ffffff;" vertex="1" parent="4rHWwF1OL5Ue9DLAmv2L-26">
          <mxGeometry x="85" y="150" width="20" height="20" as="geometry" />
        </mxCell>
        <mxCell id="4rHWwF1OL5Ue9DLAmv2L-30" value="VA&lt;br&gt;Bot engine" style="ellipse;whiteSpace=wrap;html=1;aspect=fixed;labelBackgroundColor=none;fillColor=#B2C9AB;strokeColor=#788AA3;fontColor=#46495D;" vertex="1" parent="4rHWwF1OL5Ue9DLAmv2L-26">
          <mxGeometry x="40" y="190" width="80" height="80" as="geometry" />
        </mxCell>
        <mxCell id="4rHWwF1OL5Ue9DLAmv2L-31" value="Virtual agent" style="ellipse;whiteSpace=wrap;html=1;aspect=fixed;labelBackgroundColor=none;fillColor=#B2C9AB;strokeColor=#788AA3;fontColor=#46495D;" vertex="1" parent="4rHWwF1OL5Ue9DLAmv2L-26">
          <mxGeometry x="40" y="320" width="80" height="80" as="geometry" />
        </mxCell>
        <mxCell id="4rHWwF1OL5Ue9DLAmv2L-32" value="" style="curved=1;endArrow=classic;html=1;rounded=0;strokeColor=#788AA3;fontColor=#46495D;fillColor=#B2C9AB;exitX=0.5;exitY=0;exitDx=0;exitDy=0;entryX=0.5;entryY=1;entryDx=0;entryDy=0;strokeWidth=2;" edge="1" parent="4rHWwF1OL5Ue9DLAmv2L-26" source="4rHWwF1OL5Ue9DLAmv2L-31" target="4rHWwF1OL5Ue9DLAmv2L-30">
          <mxGeometry width="50" height="50" relative="1" as="geometry">
            <mxPoint x="150" y="510" as="sourcePoint" />
            <mxPoint x="200" y="460" as="targetPoint" />
            <Array as="points" />
          </mxGeometry>
        </mxCell>
        <mxCell id="4rHWwF1OL5Ue9DLAmv2L-33" value="VA&lt;br&gt;Server" style="ellipse;whiteSpace=wrap;html=1;aspect=fixed;labelBackgroundColor=none;fillColor=#B2C9AB;strokeColor=#788AA3;fontColor=#46495D;" vertex="1" parent="4rHWwF1OL5Ue9DLAmv2L-26">
          <mxGeometry x="40" y="40" width="80" height="80" as="geometry" />
        </mxCell>
        <mxCell id="4rHWwF1OL5Ue9DLAmv2L-34" value="" style="curved=1;endArrow=classic;html=1;rounded=0;strokeColor=#788AA3;fontColor=#46495D;fillColor=#B2C9AB;exitX=0;exitY=0;exitDx=0;exitDy=0;entryX=0.5;entryY=1;entryDx=0;entryDy=0;strokeWidth=2;" edge="1" parent="4rHWwF1OL5Ue9DLAmv2L-26" source="4rHWwF1OL5Ue9DLAmv2L-30" target="4rHWwF1OL5Ue9DLAmv2L-33">
          <mxGeometry width="50" height="50" relative="1" as="geometry">
            <mxPoint x="-140" y="310" as="sourcePoint" />
            <mxPoint x="-90" y="260" as="targetPoint" />
            <Array as="points">
              <mxPoint x="60" y="180" />
            </Array>
          </mxGeometry>
        </mxCell>
        <mxCell id="4rHWwF1OL5Ue9DLAmv2L-35" value="" style="curved=1;endArrow=classic;html=1;rounded=0;strokeColor=#788AA3;fontColor=#46495D;fillColor=#B2C9AB;entryX=0;entryY=0;entryDx=0;entryDy=0;strokeWidth=2;" edge="1" parent="4rHWwF1OL5Ue9DLAmv2L-26" source="4rHWwF1OL5Ue9DLAmv2L-33" target="4rHWwF1OL5Ue9DLAmv2L-44">
          <mxGeometry width="50" height="50" relative="1" as="geometry">
            <mxPoint x="60" y="360" as="sourcePoint" />
            <mxPoint x="110" y="310" as="targetPoint" />
            <Array as="points">
              <mxPoint x="100" y="130" />
              <mxPoint x="200" y="150" />
            </Array>
          </mxGeometry>
        </mxCell>
        <mxCell id="4rHWwF1OL5Ue9DLAmv2L-36" value="C5" style="ellipse;whiteSpace=wrap;html=1;aspect=fixed;labelBackgroundColor=none;fillColor=#76608a;strokeColor=#432D57;fontColor=#ffffff;" vertex="1" parent="4rHWwF1OL5Ue9DLAmv2L-26">
          <mxGeometry x="300" y="120" width="20" height="20" as="geometry" />
        </mxCell>
        <mxCell id="4rHWwF1OL5Ue9DLAmv2L-37" value="BO&amp;nbsp;&lt;br&gt;vault" style="ellipse;whiteSpace=wrap;html=1;aspect=fixed;labelBackgroundColor=none;fillColor=#B2C9AB;strokeColor=#788AA3;fontColor=#46495D;" vertex="1" parent="4rHWwF1OL5Ue9DLAmv2L-26">
          <mxGeometry x="240" y="30" width="80" height="80" as="geometry" />
        </mxCell>
        <mxCell id="4rHWwF1OL5Ue9DLAmv2L-38" value="i4" style="ellipse;whiteSpace=wrap;html=1;aspect=fixed;fillColor=#fa6800;fontColor=#000000;strokeColor=#C73500;labelBackgroundColor=none;" vertex="1" parent="4rHWwF1OL5Ue9DLAmv2L-26">
          <mxGeometry x="280" y="120" width="20" height="20" as="geometry" />
        </mxCell>
        <mxCell id="4rHWwF1OL5Ue9DLAmv2L-39" value="T3" style="ellipse;whiteSpace=wrap;html=1;aspect=fixed;labelBackgroundColor=none;fillColor=#ffcc99;strokeColor=#36393d;" vertex="1" parent="4rHWwF1OL5Ue9DLAmv2L-26">
          <mxGeometry x="260" y="120" width="20" height="20" as="geometry" />
        </mxCell>
        <mxCell id="4rHWwF1OL5Ue9DLAmv2L-40" value="F5" style="ellipse;whiteSpace=wrap;html=1;aspect=fixed;labelBackgroundColor=none;fillColor=#0050ef;strokeColor=#001DBC;fontColor=#ffffff;" vertex="1" parent="4rHWwF1OL5Ue9DLAmv2L-26">
          <mxGeometry x="320" y="120" width="20" height="20" as="geometry" />
        </mxCell>
        <mxCell id="4rHWwF1OL5Ue9DLAmv2L-41" value="i3" style="ellipse;whiteSpace=wrap;html=1;aspect=fixed;fillColor=#fa6800;fontColor=#000000;strokeColor=#C73500;labelBackgroundColor=none;" vertex="1" parent="4rHWwF1OL5Ue9DLAmv2L-26">
          <mxGeometry x="255" y="265" width="20" height="20" as="geometry" />
        </mxCell>
        <mxCell id="4rHWwF1OL5Ue9DLAmv2L-42" value="L1" style="ellipse;whiteSpace=wrap;html=1;aspect=fixed;labelBackgroundColor=none;fillColor=#008a00;strokeColor=#005700;fontColor=#ffffff;" vertex="1" parent="4rHWwF1OL5Ue9DLAmv2L-26">
          <mxGeometry x="275" y="500" width="20" height="20" as="geometry" />
        </mxCell>
        <mxCell id="4rHWwF1OL5Ue9DLAmv2L-43" value="L2" style="ellipse;whiteSpace=wrap;html=1;aspect=fixed;labelBackgroundColor=none;fillColor=#008a00;strokeColor=#005700;fontColor=#ffffff;" vertex="1" parent="4rHWwF1OL5Ue9DLAmv2L-26">
          <mxGeometry x="340" y="120" width="20" height="20" as="geometry" />
        </mxCell>
        <mxCell id="4rHWwF1OL5Ue9DLAmv2L-44" value="AIS Client" style="ellipse;whiteSpace=wrap;html=1;aspect=fixed;labelBackgroundColor=none;fillColor=#B2C9AB;strokeColor=#788AA3;fontColor=#46495D;" vertex="1" parent="4rHWwF1OL5Ue9DLAmv2L-26">
          <mxGeometry x="240" y="180" width="80" height="80" as="geometry" />
        </mxCell>
        <mxCell id="4rHWwF1OL5Ue9DLAmv2L-45" value="Vector&lt;br&gt;Indexworker" style="ellipse;whiteSpace=wrap;html=1;aspect=fixed;labelBackgroundColor=none;fillColor=#B2C9AB;strokeColor=#788AA3;fontColor=#46495D;" vertex="1" parent="4rHWwF1OL5Ue9DLAmv2L-26">
          <mxGeometry x="240" y="292.5" width="80" height="80" as="geometry" />
        </mxCell>
        <mxCell id="4rHWwF1OL5Ue9DLAmv2L-46" style="edgeStyle=orthogonalEdgeStyle;rounded=0;orthogonalLoop=1;jettySize=auto;html=1;exitX=0.5;exitY=0;exitDx=0;exitDy=0;entryX=0.5;entryY=1;entryDx=0;entryDy=0;fillColor=#B2C9AB;strokeColor=#788AA3;strokeWidth=2;labelBackgroundColor=none;fontColor=default;" edge="1" parent="4rHWwF1OL5Ue9DLAmv2L-26" source="4rHWwF1OL5Ue9DLAmv2L-45" target="4rHWwF1OL5Ue9DLAmv2L-44">
          <mxGeometry relative="1" as="geometry" />
        </mxCell>
        <mxCell id="4rHWwF1OL5Ue9DLAmv2L-47" style="edgeStyle=orthogonalEdgeStyle;rounded=0;orthogonalLoop=1;jettySize=auto;html=1;exitX=0.5;exitY=0;exitDx=0;exitDy=0;entryX=0.5;entryY=1;entryDx=0;entryDy=0;strokeColor=#788AA3;fontColor=#46495D;fillColor=#B2C9AB;strokeWidth=2;" edge="1" parent="4rHWwF1OL5Ue9DLAmv2L-26" source="4rHWwF1OL5Ue9DLAmv2L-44" target="4rHWwF1OL5Ue9DLAmv2L-37">
          <mxGeometry relative="1" as="geometry" />
        </mxCell>
        <mxCell id="4rHWwF1OL5Ue9DLAmv2L-48" value="SMAX Front" style="swimlane;whiteSpace=wrap;html=1;labelBackgroundColor=none;fillColor=#ffe6cc;strokeColor=#d79b00;" vertex="1" parent="4rHWwF1OL5Ue9DLAmv2L-8">
          <mxGeometry x="20" y="35" width="280" height="630" as="geometry" />
        </mxCell>
        <mxCell id="4rHWwF1OL5Ue9DLAmv2L-49" value="VA&lt;br&gt;UI" style="ellipse;whiteSpace=wrap;html=1;aspect=fixed;labelBackgroundColor=none;fillColor=#B2C9AB;strokeColor=#788AA3;fontColor=#46495D;" vertex="1" parent="4rHWwF1OL5Ue9DLAmv2L-48">
          <mxGeometry x="50" y="40" width="80" height="80" as="geometry" />
        </mxCell>
        <mxCell id="4rHWwF1OL5Ue9DLAmv2L-50" value="Portal" style="ellipse;whiteSpace=wrap;html=1;aspect=fixed;labelBackgroundColor=none;fillColor=#B2C9AB;strokeColor=#788AA3;fontColor=#46495D;" vertex="1" parent="4rHWwF1OL5Ue9DLAmv2L-48">
          <mxGeometry x="50" y="307.5" width="80" height="80" as="geometry" />
        </mxCell>
        <mxCell id="4rHWwF1OL5Ue9DLAmv2L-51" value="Agent" style="ellipse;whiteSpace=wrap;html=1;aspect=fixed;labelBackgroundColor=none;fillColor=#B2C9AB;strokeColor=#788AA3;fontColor=#46495D;" vertex="1" parent="4rHWwF1OL5Ue9DLAmv2L-48">
          <mxGeometry x="40" y="430" width="80" height="80" as="geometry" />
        </mxCell>
        <mxCell id="4rHWwF1OL5Ue9DLAmv2L-52" value="BO&lt;br&gt;UI" style="ellipse;whiteSpace=wrap;html=1;aspect=fixed;labelBackgroundColor=none;fillColor=#B2C9AB;strokeColor=#788AA3;fontColor=#46495D;" vertex="1" parent="4rHWwF1OL5Ue9DLAmv2L-48">
          <mxGeometry x="40" y="530" width="80" height="80" as="geometry" />
        </mxCell>
        <mxCell id="4rHWwF1OL5Ue9DLAmv2L-53" value="" style="curved=1;endArrow=classic;html=1;rounded=0;strokeColor=#788AA3;fontColor=#46495D;fillColor=#B2C9AB;exitX=1;exitY=0.5;exitDx=0;exitDy=0;entryX=1;entryY=1;entryDx=0;entryDy=0;strokeWidth=2;" edge="1" parent="4rHWwF1OL5Ue9DLAmv2L-8" source="4rHWwF1OL5Ue9DLAmv2L-52" target="4rHWwF1OL5Ue9DLAmv2L-44">
          <mxGeometry width="50" height="50" relative="1" as="geometry">
            <mxPoint x="580" y="605" as="sourcePoint" />
            <mxPoint x="630" y="555" as="targetPoint" />
            <Array as="points">
              <mxPoint x="590" y="575" />
              <mxPoint x="630" y="525" />
              <mxPoint x="660" y="455" />
              <mxPoint x="670" y="375" />
            </Array>
          </mxGeometry>
        </mxCell>
        <mxCell id="4rHWwF1OL5Ue9DLAmv2L-54" value="" style="curved=1;endArrow=classic;html=1;rounded=0;exitX=0.175;exitY=0.944;exitDx=0;exitDy=0;fillColor=#B2C9AB;strokeColor=#788AA3;strokeWidth=2;labelBackgroundColor=none;fontColor=default;exitPerimeter=0;entryX=1;entryY=0;entryDx=0;entryDy=0;" edge="1" parent="4rHWwF1OL5Ue9DLAmv2L-8" source="4rHWwF1OL5Ue9DLAmv2L-45" target="4rHWwF1OL5Ue9DLAmv2L-24">
          <mxGeometry width="50" height="50" relative="1" as="geometry">
            <mxPoint x="420" y="400" as="sourcePoint" />
            <mxPoint x="460" y="525" as="targetPoint" />
            <Array as="points">
              <mxPoint x="580" y="415" />
              <mxPoint x="560" y="445" />
              <mxPoint x="520" y="475" />
            </Array>
          </mxGeometry>
        </mxCell>
        <mxCell id="4rHWwF1OL5Ue9DLAmv2L-3" style="edgeStyle=orthogonalEdgeStyle;rounded=0;orthogonalLoop=1;jettySize=auto;html=1;exitX=1;exitY=1;exitDx=0;exitDy=0;entryX=0;entryY=0.5;entryDx=0;entryDy=0;" edge="1" parent="1" source="4rHWwF1OL5Ue9DLAmv2L-2" target="C2ofrioWJH9qEL8GQ5yr-44">
          <mxGeometry relative="1" as="geometry">
            <Array as="points">
              <mxPoint x="950" y="395" />
            </Array>
          </mxGeometry>
        </mxCell>
        <mxCell id="4rHWwF1OL5Ue9DLAmv2L-4" value="AIS Cluster" style="swimlane;whiteSpace=wrap;html=1;fillColor=#dae8fc;strokeColor=#6c8ebf;" vertex="1" parent="1">
          <mxGeometry x="1010" y="145" width="400" height="715" as="geometry" />
        </mxCell>
        <mxCell id="4rHWwF1OL5Ue9DLAmv2L-7" value="Amazon" style="swimlane;whiteSpace=wrap;html=1;fillColor=#d5e8d4;strokeColor=#82b366;" vertex="1" parent="1">
          <mxGeometry x="30" y="100" width="1930" height="790" as="geometry" />
        </mxCell>
        <mxCell id="C2ofrioWJH9qEL8GQ5yr-32" value="Embedding&lt;br&gt;Service" style="ellipse;whiteSpace=wrap;html=1;labelBackgroundColor=none;fillColor=#B2C9AB;strokeColor=#788AA3;fontColor=#46495D;" parent="4rHWwF1OL5Ue9DLAmv2L-7" vertex="1">
          <mxGeometry x="1170" y="140" width="140" height="75" as="geometry" />
        </mxCell>
        <mxCell id="C2ofrioWJH9qEL8GQ5yr-39" value="Initial &amp;amp; maintain&lt;br&gt;Service" style="ellipse;whiteSpace=wrap;html=1;labelBackgroundColor=none;fillColor=#B2C9AB;strokeColor=#788AA3;fontColor=#46495D;" parent="4rHWwF1OL5Ue9DLAmv2L-7" vertex="1">
          <mxGeometry x="1170" y="230" width="140" height="75" as="geometry" />
        </mxCell>
        <mxCell id="C2ofrioWJH9qEL8GQ5yr-38" value="Search&lt;br&gt;Service" style="ellipse;whiteSpace=wrap;html=1;labelBackgroundColor=none;fillColor=#B2C9AB;strokeColor=#788AA3;fontColor=#46495D;" parent="4rHWwF1OL5Ue9DLAmv2L-7" vertex="1">
          <mxGeometry x="1170" y="330" width="140" height="75" as="geometry" />
        </mxCell>
        <mxCell id="C2ofrioWJH9qEL8GQ5yr-37" value="Store&lt;br style=&quot;border-color: var(--border-color);&quot;&gt;Service&lt;br&gt;" style="ellipse;whiteSpace=wrap;html=1;labelBackgroundColor=none;fillColor=#B2C9AB;strokeColor=#788AA3;fontColor=#46495D;" parent="4rHWwF1OL5Ue9DLAmv2L-7" vertex="1">
          <mxGeometry x="1170" y="440" width="140" height="75" as="geometry" />
        </mxCell>
        <mxCell id="C2ofrioWJH9qEL8GQ5yr-40" value="Completion&lt;br style=&quot;border-color: var(--border-color);&quot;&gt;Service" style="ellipse;whiteSpace=wrap;html=1;labelBackgroundColor=none;fillColor=#B2C9AB;strokeColor=#788AA3;fontColor=#46495D;" parent="4rHWwF1OL5Ue9DLAmv2L-7" vertex="1">
          <mxGeometry x="1170" y="540" width="140" height="75" as="geometry" />
        </mxCell>
        <mxCell id="C2ofrioWJH9qEL8GQ5yr-46" value="" style="curved=1;endArrow=classic;html=1;rounded=0;exitX=0.758;exitY=0.171;exitDx=0;exitDy=0;exitPerimeter=0;entryX=0;entryY=0.5;entryDx=0;entryDy=0;fillColor=#B2C9AB;strokeColor=#788AA3;strokeWidth=2;labelBackgroundColor=none;fontColor=default;" parent="4rHWwF1OL5Ue9DLAmv2L-7" target="C2ofrioWJH9qEL8GQ5yr-32" edge="1">
          <mxGeometry width="50" height="50" relative="1" as="geometry">
            <mxPoint x="1080.6399999999999" y="268.68000000000006" as="sourcePoint" />
            <mxPoint x="1110" y="175" as="targetPoint" />
            <Array as="points">
              <mxPoint x="1110" y="225" />
              <mxPoint x="1120" y="200" />
            </Array>
          </mxGeometry>
        </mxCell>
        <mxCell id="C2ofrioWJH9qEL8GQ5yr-49" value="" style="curved=1;endArrow=classic;html=1;rounded=0;exitX=1;exitY=0.5;exitDx=0;exitDy=0;entryX=0;entryY=0.5;entryDx=0;entryDy=0;fillColor=#B2C9AB;strokeColor=#788AA3;strokeWidth=2;labelBackgroundColor=none;fontColor=default;" parent="4rHWwF1OL5Ue9DLAmv2L-7" target="C2ofrioWJH9qEL8GQ5yr-39" edge="1">
          <mxGeometry width="50" height="50" relative="1" as="geometry">
            <mxPoint x="1100" y="295" as="sourcePoint" />
            <mxPoint x="1180" y="188" as="targetPoint" />
            <Array as="points">
              <mxPoint x="1130" y="268" />
            </Array>
          </mxGeometry>
        </mxCell>
        <mxCell id="C2ofrioWJH9qEL8GQ5yr-50" value="" style="curved=1;endArrow=classic;html=1;rounded=0;exitX=0.767;exitY=0.846;exitDx=0;exitDy=0;entryX=0;entryY=0.5;entryDx=0;entryDy=0;fillColor=#B2C9AB;strokeColor=#788AA3;strokeWidth=2;exitPerimeter=0;labelBackgroundColor=none;fontColor=default;" parent="4rHWwF1OL5Ue9DLAmv2L-7" target="C2ofrioWJH9qEL8GQ5yr-38" edge="1">
          <mxGeometry width="50" height="50" relative="1" as="geometry">
            <mxPoint x="1081.3600000000001" y="322.68000000000006" as="sourcePoint" />
            <mxPoint x="1070" y="395" as="targetPoint" />
            <Array as="points">
              <mxPoint x="1120" y="330" />
              <mxPoint x="1140" y="350" />
            </Array>
          </mxGeometry>
        </mxCell>
        <mxCell id="C2ofrioWJH9qEL8GQ5yr-52" value="" style="curved=1;endArrow=classic;html=1;rounded=0;exitX=0.683;exitY=0.854;exitDx=0;exitDy=0;exitPerimeter=0;entryX=-0.01;entryY=0.4;entryDx=0;entryDy=0;entryPerimeter=0;fillColor=#B2C9AB;strokeColor=#788AA3;strokeWidth=2;labelBackgroundColor=none;fontColor=default;" parent="4rHWwF1OL5Ue9DLAmv2L-7" target="C2ofrioWJH9qEL8GQ5yr-37" edge="1">
          <mxGeometry width="50" height="50" relative="1" as="geometry">
            <mxPoint x="1074.6399999999999" y="323.31999999999994" as="sourcePoint" />
            <mxPoint x="1120" y="410" as="targetPoint" />
            <Array as="points">
              <mxPoint x="1120" y="390" />
            </Array>
          </mxGeometry>
        </mxCell>
        <mxCell id="C2ofrioWJH9qEL8GQ5yr-54" value="" style="curved=1;endArrow=classic;html=1;rounded=0;entryX=0.024;entryY=0.32;entryDx=0;entryDy=0;entryPerimeter=0;fillColor=#B2C9AB;strokeColor=#788AA3;strokeWidth=2;labelBackgroundColor=none;fontColor=default;" parent="4rHWwF1OL5Ue9DLAmv2L-7" target="C2ofrioWJH9qEL8GQ5yr-40" edge="1">
          <mxGeometry width="50" height="50" relative="1" as="geometry">
            <mxPoint x="1060" y="340" as="sourcePoint" />
            <mxPoint x="1154" y="552" as="targetPoint" />
            <Array as="points">
              <mxPoint x="1105" y="472" />
              <mxPoint x="1110" y="490" />
            </Array>
          </mxGeometry>
        </mxCell>
        <mxCell id="C2ofrioWJH9qEL8GQ5yr-79" value="i8" style="ellipse;whiteSpace=wrap;html=1;aspect=fixed;fillColor=#fa6800;fontColor=#000000;strokeColor=#C73500;labelBackgroundColor=none;" parent="4rHWwF1OL5Ue9DLAmv2L-7" vertex="1">
          <mxGeometry x="1100" y="195" width="20" height="20" as="geometry" />
        </mxCell>
        <mxCell id="C2ofrioWJH9qEL8GQ5yr-90" value="i6" style="ellipse;whiteSpace=wrap;html=1;aspect=fixed;fillColor=#fa6800;fontColor=#000000;strokeColor=#C73500;labelBackgroundColor=none;" parent="4rHWwF1OL5Ue9DLAmv2L-7" vertex="1">
          <mxGeometry x="1110" y="270" width="20" height="20" as="geometry" />
        </mxCell>
        <mxCell id="C2ofrioWJH9qEL8GQ5yr-89" value="C9" style="ellipse;whiteSpace=wrap;html=1;aspect=fixed;fillColor=#76608a;fontColor=#ffffff;strokeColor=#432D57;labelBackgroundColor=none;" parent="4rHWwF1OL5Ue9DLAmv2L-7" vertex="1">
          <mxGeometry x="1130" y="330" width="20" height="20" as="geometry" />
        </mxCell>
        <mxCell id="C2ofrioWJH9qEL8GQ5yr-88" value="i10" style="ellipse;whiteSpace=wrap;html=1;aspect=fixed;fillColor=#fa6800;fontColor=#000000;strokeColor=#C73500;labelBackgroundColor=none;" parent="4rHWwF1OL5Ue9DLAmv2L-7" vertex="1">
          <mxGeometry x="1110" y="395" width="20" height="20" as="geometry" />
        </mxCell>
        <mxCell id="C2ofrioWJH9qEL8GQ5yr-87" value="C11" style="ellipse;whiteSpace=wrap;html=1;aspect=fixed;fillColor=#76608a;fontColor=#ffffff;strokeColor=#432D57;labelBackgroundColor=none;" parent="4rHWwF1OL5Ue9DLAmv2L-7" vertex="1">
          <mxGeometry x="1090" y="467.5" width="20" height="20" as="geometry" />
        </mxCell>
        <mxCell id="C2ofrioWJH9qEL8GQ5yr-144" value="C7" style="ellipse;whiteSpace=wrap;html=1;aspect=fixed;labelBackgroundColor=none;fillColor=#76608a;strokeColor=#432D57;fontColor=#ffffff;" parent="4rHWwF1OL5Ue9DLAmv2L-7" vertex="1">
          <mxGeometry x="1120" y="195" width="20" height="20" as="geometry" />
        </mxCell>
        <mxCell id="C2ofrioWJH9qEL8GQ5yr-157" value="T9" style="ellipse;whiteSpace=wrap;html=1;aspect=fixed;labelBackgroundColor=none;fillColor=#ffcc99;strokeColor=#36393d;" parent="4rHWwF1OL5Ue9DLAmv2L-7" vertex="1">
          <mxGeometry x="1120" y="415" width="20" height="20" as="geometry" />
        </mxCell>
        <mxCell id="C2ofrioWJH9qEL8GQ5yr-175" value="T7" style="ellipse;whiteSpace=wrap;html=1;aspect=fixed;labelBackgroundColor=none;fillColor=#ffcc99;strokeColor=#36393d;" parent="4rHWwF1OL5Ue9DLAmv2L-7" vertex="1">
          <mxGeometry x="1140" y="195" width="20" height="20" as="geometry" />
        </mxCell>
        <mxCell id="C2ofrioWJH9qEL8GQ5yr-193" value="F7" style="ellipse;whiteSpace=wrap;html=1;aspect=fixed;labelBackgroundColor=none;fillColor=#0050ef;strokeColor=#001DBC;fontColor=#ffffff;" parent="4rHWwF1OL5Ue9DLAmv2L-7" vertex="1">
          <mxGeometry x="1080" y="195" width="20" height="20" as="geometry" />
        </mxCell>
        <mxCell id="C2ofrioWJH9qEL8GQ5yr-196" value="F9" style="ellipse;whiteSpace=wrap;html=1;aspect=fixed;labelBackgroundColor=none;fillColor=#0050ef;strokeColor=#001DBC;fontColor=#ffffff;" parent="4rHWwF1OL5Ue9DLAmv2L-7" vertex="1">
          <mxGeometry x="1150" y="335" width="20" height="20" as="geometry" />
        </mxCell>
        <mxCell id="C2ofrioWJH9qEL8GQ5yr-200" value="T5" style="ellipse;whiteSpace=wrap;html=1;aspect=fixed;labelBackgroundColor=none;fillColor=#ffcc99;strokeColor=#36393d;" parent="4rHWwF1OL5Ue9DLAmv2L-7" vertex="1">
          <mxGeometry x="1120" y="250" width="20" height="20" as="geometry" />
        </mxCell>
        <mxCell id="C2ofrioWJH9qEL8GQ5yr-251" value="L4" style="ellipse;whiteSpace=wrap;html=1;aspect=fixed;labelBackgroundColor=none;fillColor=#008a00;strokeColor=#005700;fontColor=#ffffff;" parent="4rHWwF1OL5Ue9DLAmv2L-7" vertex="1">
          <mxGeometry x="1130" y="270" width="20" height="20" as="geometry" />
        </mxCell>
        <mxCell id="C2ofrioWJH9qEL8GQ5yr-44" value="Gateway" style="rhombus;whiteSpace=wrap;html=1;labelBackgroundColor=none;fillColor=#B2C9AB;strokeColor=#788AA3;fontColor=#46495D;" parent="4rHWwF1OL5Ue9DLAmv2L-7" vertex="1">
          <mxGeometry x="1020" y="255" width="80" height="80" as="geometry" />
        </mxCell>
        <mxCell id="4rHWwF1OL5Ue9DLAmv2L-55" value="S3" style="swimlane;whiteSpace=wrap;html=1;fillColor=#dae8fc;strokeColor=#6c8ebf;" vertex="1" parent="4rHWwF1OL5Ue9DLAmv2L-7">
          <mxGeometry x="1390" y="220" width="200" height="250" as="geometry" />
        </mxCell>
        <mxCell id="C2ofrioWJH9qEL8GQ5yr-138" value="T4" style="ellipse;whiteSpace=wrap;html=1;aspect=fixed;labelBackgroundColor=none;fillColor=#ffcc99;strokeColor=#36393d;" parent="4rHWwF1OL5Ue9DLAmv2L-7" vertex="1">
          <mxGeometry x="820" y="195" width="20" height="20" as="geometry" />
        </mxCell>
        <mxCell id="4rHWwF1OL5Ue9DLAmv2L-9" value="i5" style="ellipse;whiteSpace=wrap;html=1;aspect=fixed;fillColor=#fa6800;fontColor=#000000;strokeColor=#C73500;labelBackgroundColor=none;" vertex="1" parent="4rHWwF1OL5Ue9DLAmv2L-7">
          <mxGeometry x="840" y="195" width="20" height="20" as="geometry" />
        </mxCell>
        <mxCell id="4rHWwF1OL5Ue9DLAmv2L-23" value="F6" style="ellipse;whiteSpace=wrap;html=1;aspect=fixed;labelBackgroundColor=none;fillColor=#0050ef;strokeColor=#001DBC;fontColor=#ffffff;" vertex="1" parent="4rHWwF1OL5Ue9DLAmv2L-7">
          <mxGeometry x="860" y="195" width="20" height="20" as="geometry" />
        </mxCell>
        <mxCell id="4rHWwF1OL5Ue9DLAmv2L-15" value="C6" style="ellipse;whiteSpace=wrap;html=1;aspect=fixed;labelBackgroundColor=none;fillColor=#76608a;strokeColor=#432D57;fontColor=#ffffff;" vertex="1" parent="4rHWwF1OL5Ue9DLAmv2L-7">
          <mxGeometry x="880" y="195" width="20" height="20" as="geometry" />
        </mxCell>
        <mxCell id="C2ofrioWJH9qEL8GQ5yr-250" value="L3" style="ellipse;whiteSpace=wrap;html=1;aspect=fixed;labelBackgroundColor=none;fillColor=#008a00;strokeColor=#005700;fontColor=#ffffff;" parent="4rHWwF1OL5Ue9DLAmv2L-7" vertex="1">
          <mxGeometry x="900" y="195" width="20" height="20" as="geometry" />
        </mxCell>
        <mxCell id="C2ofrioWJH9qEL8GQ5yr-71" value="" style="curved=1;endArrow=classic;html=1;rounded=0;exitX=1;exitY=0.5;exitDx=0;exitDy=0;entryX=0.5;entryY=0;entryDx=0;entryDy=0;entryPerimeter=0;fillColor=#B2C9AB;strokeColor=#788AA3;strokeWidth=2;labelBackgroundColor=none;fontColor=default;" parent="1" source="C2ofrioWJH9qEL8GQ5yr-39" target="C2ofrioWJH9qEL8GQ5yr-41" edge="1">
          <mxGeometry width="50" height="50" relative="1" as="geometry">
            <mxPoint x="1390" y="364" as="sourcePoint" />
            <mxPoint x="1517" y="360" as="targetPoint" />
            <Array as="points">
              <mxPoint x="1460" y="370" />
              <mxPoint x="1487" y="385" />
            </Array>
          </mxGeometry>
        </mxCell>
        <mxCell id="C2ofrioWJH9qEL8GQ5yr-69" value="" style="curved=1;endArrow=classic;html=1;rounded=0;exitX=1.024;exitY=0.382;exitDx=0;exitDy=0;exitPerimeter=0;entryX=0;entryY=0.5;entryDx=0;entryDy=0;entryPerimeter=0;fillColor=#B2C9AB;strokeColor=#788AA3;strokeWidth=2;labelBackgroundColor=none;fontColor=default;" parent="1" source="C2ofrioWJH9qEL8GQ5yr-38" target="C2ofrioWJH9qEL8GQ5yr-41" edge="1">
          <mxGeometry width="50" height="50" relative="1" as="geometry">
            <mxPoint x="1420" y="450" as="sourcePoint" />
            <mxPoint x="1470" y="400" as="targetPoint" />
            <Array as="points">
              <mxPoint x="1470" y="450" />
            </Array>
          </mxGeometry>
        </mxCell>
        <mxCell id="C2ofrioWJH9qEL8GQ5yr-70" value="" style="curved=1;endArrow=classic;html=1;rounded=0;exitX=1.024;exitY=0.604;exitDx=0;exitDy=0;entryX=0.5;entryY=1;entryDx=0;entryDy=0;entryPerimeter=0;fillColor=#B2C9AB;strokeColor=#788AA3;strokeWidth=2;exitPerimeter=0;labelBackgroundColor=none;fontColor=default;" parent="1" source="C2ofrioWJH9qEL8GQ5yr-37" target="C2ofrioWJH9qEL8GQ5yr-41" edge="1">
          <mxGeometry width="50" height="50" relative="1" as="geometry">
            <mxPoint x="1383" y="671.5" as="sourcePoint" />
            <mxPoint x="1510" y="667.5" as="targetPoint" />
            <Array as="points">
              <mxPoint x="1450" y="550" />
              <mxPoint x="1480" y="540" />
            </Array>
          </mxGeometry>
        </mxCell>
      </root>
    </mxGraphModel>
  </diagram>
</mxfile>
